<svg width="24" height="19" viewBox="0 0 24 19" fill="none" xmlns="http://www.w3.org/2000/svg">
<path d="M21.7797 4.04803L21.715 3.96483C21.715 3.96483 21.715 3.90013 21.715 3.8724C20.1104 1.92365 17.8961 0.572287 15.4294 0.0363293C15.3098 0.00179588 15.1846 -0.00825851 15.0611 0.00676887C14.9376 0.0217962 14.8184 0.0615963 14.7107 0.123784C14.6029 0.185972 14.5089 0.269268 14.4341 0.368682C14.3593 0.468096 14.3053 0.581583 14.2755 0.702343C14.2456 0.823103 14.2404 0.948652 14.2602 1.07147C14.28 1.19428 14.3244 1.31184 14.3907 1.41709C14.457 1.52235 14.5439 1.61313 14.6461 1.68401C14.7483 1.75489 14.8638 1.8044 14.9857 1.82958C17.0255 2.26691 18.8625 3.36908 20.2083 4.96314C21.455 7.82454 22.1061 10.9099 22.1217 14.0311C20.8343 15.2318 19.2309 16.0399 17.4999 16.3604V15.963C17.4999 15.963 17.4999 15.9167 17.4999 15.889C18.6394 15.4469 19.7077 14.8396 20.6704 14.0865C20.8629 13.9333 20.9866 13.7099 21.0143 13.4655C21.0421 13.2211 20.9716 12.9756 20.8183 12.7832C20.6651 12.5907 20.4417 12.467 20.1973 12.4393C19.9529 12.4116 19.7074 12.4821 19.515 12.6353C17.3453 14.2807 14.6754 15.1293 11.9538 15.0386C9.25419 15.1144 6.60957 14.2666 4.45727 12.6353C4.36198 12.5594 4.25268 12.5031 4.13561 12.4694C4.01854 12.4358 3.89599 12.4256 3.77497 12.4393C3.53054 12.467 3.30715 12.5907 3.15393 12.7832C3.00071 12.9756 2.93021 13.2211 2.95795 13.4655C2.98568 13.7099 3.10938 13.9333 3.30183 14.0865C4.25796 14.8394 5.32012 15.4468 6.45387 15.889V16.3604C4.7229 16.0399 3.11945 15.2318 1.8321 14.0311C1.85354 10.9086 2.51087 7.8232 3.764 4.96314C5.10981 3.36908 6.94676 2.26691 8.9866 1.82958C9.21617 1.76324 9.41113 1.61059 9.53058 1.40363C9.65003 1.19667 9.6847 0.951501 9.6273 0.71954C9.56991 0.487579 9.42492 0.286856 9.22275 0.159478C9.02057 0.0320994 8.77692 -0.0120362 8.54291 0.0363293C6.07614 0.572287 3.86186 1.92365 2.25731 3.8724C2.25731 3.8724 2.25731 3.9371 2.25731 3.96483L2.1926 4.04803C0.399353 7.74544 0.195995 11.1193 0.0018805 14.3453C-0.00647947 14.4762 0.0130995 14.6073 0.059317 14.7301C0.105535 14.8528 0.177333 14.9642 0.269943 15.0571C2.14863 16.9718 4.65753 18.1409 7.33201 18.3478C7.57451 18.3468 7.80689 18.2505 7.97906 18.0797C8.0664 17.9941 8.13588 17.892 8.18348 17.7794C8.23108 17.6667 8.25586 17.5457 8.25636 17.4234V16.4991C10.6885 17.068 13.2191 17.068 15.6512 16.4991V17.4234C15.6517 17.5457 15.6765 17.6667 15.7241 17.7794C15.7717 17.892 15.8412 17.9941 15.9285 18.0797C16.1007 18.2505 16.3331 18.3468 16.5756 18.3478C19.2763 18.1753 21.8209 17.0214 23.7301 15.1033C23.8227 15.0105 23.8945 14.899 23.9407 14.7763C23.9869 14.6536 24.0065 14.5224 23.9981 14.3915C23.7763 11.1193 23.5729 7.78242 21.7797 4.04803Z"
 fill="white"/>
</svg>
